<svg width="32" height="32" viewBox="0 0 32 32" fill="none" xmlns="http://www.w3.org/2000/svg">
<rect width="32" height="32" rx="16" fill="#6FE3C2"/>
<path d="M12.4161 21V19.4489L16.0404 16.093C16.3486 15.7947 16.6072 15.5263 16.816 15.2876C17.0281 15.049 17.1888 14.8153 17.2982 14.5866C17.4076 14.3546 17.4623 14.1044 17.4623 13.8359C17.4623 13.5376 17.3943 13.2808 17.2584 13.0653C17.1225 12.8466 16.9369 12.6792 16.7016 12.5632C16.4663 12.4439 16.1995 12.3842 15.9012 12.3842C15.5896 12.3842 15.3179 12.4472 15.0858 12.5732C14.8538 12.6991 14.6749 12.8797 14.5489 13.1151C14.423 13.3504 14.36 13.6304 14.36 13.9553H12.3167C12.3167 13.2891 12.4675 12.7107 12.7691 12.2202C13.0707 11.7296 13.4933 11.3501 14.0368 11.0817C14.5804 10.8132 15.2068 10.679 15.9161 10.679C16.6453 10.679 17.28 10.8082 17.8202 11.0668C18.3638 11.322 18.7864 11.6766 19.088 12.1307C19.3896 12.5848 19.5404 13.1051 19.5404 13.6918C19.5404 14.0762 19.4642 14.4557 19.3117 14.8303C19.1626 15.2048 18.8957 15.6207 18.5113 16.0781C18.1268 16.5322 17.5849 17.0774 16.8856 17.7138L15.3991 19.1705V19.2401H19.6746V21H12.4161Z" fill="#173B33"/>
</svg>
