<svg width="638" height="488" viewBox="0 0 638 488" fill="none" xmlns="http://www.w3.org/2000/svg">
<g filter="url(#filter0_d_284_2206)">
<rect x="48" y="30" width="542" height="392" rx="24" fill="#1C2723" shape-rendering="crispEdges"/>
<rect x="48.5" y="30.5" width="541" height="391" rx="23.5" stroke="white" stroke-opacity="0.06" shape-rendering="crispEdges"/>
<path d="M82.96 90V69.84H99.298V90H95.924V73.004H86.334V90H82.96ZM109.34 90.42C107.828 90.42 106.507 90.0793 105.378 89.398C104.248 88.7167 103.371 87.7787 102.746 86.584C102.13 85.38 101.822 83.9987 101.822 82.44C101.822 80.8533 102.139 79.4627 102.774 78.268C103.408 77.0733 104.29 76.14 105.42 75.468C106.549 74.796 107.856 74.46 109.34 74.46C110.861 74.46 112.186 74.8007 113.316 75.482C114.445 76.1633 115.322 77.106 115.948 78.31C116.573 79.5047 116.886 80.8813 116.886 82.44C116.886 84.008 116.568 85.394 115.934 86.598C115.308 87.7927 114.431 88.7307 113.302 89.412C112.172 90.084 110.852 90.42 109.34 90.42ZM109.34 87.256C110.684 87.256 111.682 86.808 112.336 85.912C112.989 85.016 113.316 83.8587 113.316 82.44C113.316 80.9747 112.984 79.808 112.322 78.94C111.659 78.0627 110.665 77.624 109.34 77.624C108.434 77.624 107.688 77.8293 107.1 78.24C106.521 78.6413 106.092 79.206 105.812 79.934C105.532 80.6527 105.392 81.488 105.392 82.44C105.392 83.9053 105.723 85.0767 106.386 85.954C107.058 86.822 108.042 87.256 109.34 87.256ZM126.676 90.42C125.202 90.42 123.965 90.07 122.966 89.37C121.968 88.67 121.216 87.718 120.712 86.514C120.208 85.3007 119.956 83.9427 119.956 82.44C119.956 80.9187 120.208 79.556 120.712 78.352C121.216 77.148 121.954 76.2007 122.924 75.51C123.904 74.81 125.113 74.46 126.55 74.46C127.978 74.46 129.215 74.81 130.26 75.51C131.315 76.2007 132.132 77.148 132.71 78.352C133.289 79.5467 133.578 80.9093 133.578 82.44C133.578 83.952 133.294 85.31 132.724 86.514C132.155 87.718 131.352 88.67 130.316 89.37C129.28 90.07 128.067 90.42 126.676 90.42ZM119.382 96.72V74.88H122.364V85.492H122.784V96.72H119.382ZM126.158 87.396C127.036 87.396 127.759 87.1767 128.328 86.738C128.898 86.2993 129.318 85.7067 129.588 84.96C129.868 84.204 130.008 83.364 130.008 82.44C130.008 81.5253 129.868 80.6947 129.588 79.948C129.308 79.192 128.874 78.5947 128.286 78.156C127.698 77.708 126.952 77.484 126.046 77.484C125.188 77.484 124.488 77.694 123.946 78.114C123.405 78.5247 123.004 79.1033 122.742 79.85C122.49 80.5873 122.364 81.4507 122.364 82.44C122.364 83.42 122.49 84.2833 122.742 85.03C123.004 85.7767 123.41 86.36 123.96 86.78C124.52 87.1907 125.253 87.396 126.158 87.396ZM136.384 72.584V69.49H139.758V72.584H136.384ZM136.384 90V74.88H139.758V90H136.384ZM143.364 90V74.88H150.238C150.733 74.88 151.195 74.908 151.624 74.964C152.053 75.02 152.422 75.09 152.73 75.174C153.458 75.3887 154.102 75.8087 154.662 76.434C155.222 77.05 155.502 77.904 155.502 78.996C155.502 79.64 155.399 80.172 155.194 80.592C154.989 81.0027 154.718 81.348 154.382 81.628C154.223 81.7587 154.06 81.8707 153.892 81.964C153.724 82.0573 153.556 82.132 153.388 82.188C153.752 82.244 154.097 82.3513 154.424 82.51C154.937 82.762 155.367 83.1353 155.712 83.63C156.067 84.1247 156.244 84.82 156.244 85.716C156.244 86.7333 155.997 87.592 155.502 88.292C155.017 88.9827 154.303 89.4633 153.36 89.734C153.015 89.8273 152.618 89.8973 152.17 89.944C151.722 89.9813 151.265 90 150.798 90H143.364ZM146.78 87.396H150.56C150.756 87.396 150.971 87.3773 151.204 87.34C151.437 87.3027 151.647 87.2513 151.834 87.186C152.17 87.0647 152.413 86.85 152.562 86.542C152.721 86.234 152.8 85.912 152.8 85.576C152.8 85.1187 152.683 84.7547 152.45 84.484C152.226 84.204 151.955 84.0173 151.638 83.924C151.451 83.8493 151.246 83.8073 151.022 83.798C150.807 83.7793 150.63 83.77 150.49 83.77H146.78V87.396ZM146.78 81.124H149.58C149.869 81.124 150.149 81.11 150.42 81.082C150.7 81.0447 150.933 80.984 151.12 80.9C151.428 80.7787 151.652 80.5733 151.792 80.284C151.941 79.9947 152.016 79.6727 152.016 79.318C152.016 78.9447 151.932 78.6087 151.764 78.31C151.605 78.002 151.349 77.7967 150.994 77.694C150.761 77.6007 150.476 77.5493 150.14 77.54C149.813 77.5307 149.603 77.526 149.51 77.526H146.78V81.124ZM158.444 90V74.88H161.818V80.844H168.608V74.88H171.982V90H168.608V84.008H161.818V90H158.444ZM184.374 90V84.96H181.672C181.327 84.96 180.893 84.9507 180.37 84.932C179.857 84.9133 179.376 84.8667 178.928 84.792C177.762 84.5773 176.796 84.0687 176.03 83.266C175.265 82.454 174.882 81.3527 174.882 79.962C174.882 78.5993 175.246 77.5027 175.974 76.672C176.702 75.8413 177.65 75.3093 178.816 75.076C179.302 74.9733 179.801 74.9173 180.314 74.908C180.837 74.8893 181.271 74.88 181.616 74.88H187.748V90H184.374ZM174.49 90L178.102 84.218H181.616L178.032 90H174.49ZM181.322 82.314H184.374V77.526H181.322C181.145 77.526 180.93 77.5353 180.678 77.554C180.426 77.5727 180.174 77.6147 179.922 77.68C179.652 77.764 179.395 77.9087 179.152 78.114C178.91 78.3193 178.709 78.576 178.55 78.884C178.392 79.192 178.312 79.542 178.312 79.934C178.312 80.522 178.48 81.012 178.816 81.404C179.162 81.7867 179.563 82.0433 180.02 82.174C180.244 82.23 180.473 82.2673 180.706 82.286C180.949 82.3047 181.154 82.314 181.322 82.314ZM191.067 90V74.88H194.441V80.844H201.231V74.88H204.605V90H201.231V84.008H194.441V90H191.067ZM207.925 90V74.88H211.299V80.844H218.089V74.88H221.463V90H218.089V84.008H211.299V90H207.925ZM233.855 90V84.96H231.153C230.807 84.96 230.373 84.9507 229.851 84.932C229.337 84.9133 228.857 84.8667 228.409 84.792C227.242 84.5773 226.276 84.0687 225.511 83.266C224.745 82.454 224.363 81.3527 224.363 79.962C224.363 78.5993 224.727 77.5027 225.455 76.672C226.183 75.8413 227.13 75.3093 228.297 75.076C228.782 74.9733 229.281 74.9173 229.795 74.908C230.317 74.8893 230.751 74.88 231.097 74.88H237.229V90H233.855ZM223.971 90L227.583 84.218H231.097L227.513 90H223.971ZM230.803 82.314H233.855V77.526H230.803C230.625 77.526 230.411 77.5353 230.159 77.554C229.907 77.5727 229.655 77.6147 229.403 77.68C229.132 77.764 228.875 77.9087 228.633 78.114C228.39 78.3193 228.189 78.576 228.031 78.884C227.872 79.192 227.793 79.542 227.793 79.934C227.793 80.522 227.961 81.012 228.297 81.404C228.642 81.7867 229.043 82.0433 229.501 82.174C229.725 82.23 229.953 82.2673 230.187 82.286C230.429 82.3047 230.635 82.314 230.803 82.314ZM245.592 90L245.62 74.88H249.036V82.16L254.566 74.88H258.78L252.914 82.44L259.284 90H254.818L249.036 82.72V90H245.592ZM266.531 90.42C265.019 90.42 263.699 90.0793 262.569 89.398C261.44 88.7167 260.563 87.7787 259.937 86.584C259.321 85.38 259.013 83.9987 259.013 82.44C259.013 80.8533 259.331 79.4627 259.965 78.268C260.6 77.0733 261.482 76.14 262.611 75.468C263.741 74.796 265.047 74.46 266.531 74.46C268.053 74.46 269.378 74.8007 270.507 75.482C271.637 76.1633 272.514 77.106 273.139 78.31C273.765 79.5047 274.077 80.8813 274.077 82.44C274.077 84.008 273.76 85.394 273.125 86.598C272.5 87.7927 271.623 88.7307 270.493 89.412C269.364 90.084 268.043 90.42 266.531 90.42ZM266.531 87.256C267.875 87.256 268.874 86.808 269.527 85.912C270.181 85.016 270.507 83.8587 270.507 82.44C270.507 80.9747 270.176 79.808 269.513 78.94C268.851 78.0627 267.857 77.624 266.531 77.624C265.626 77.624 264.879 77.8293 264.291 78.24C263.713 78.6413 263.283 79.206 263.003 79.934C262.723 80.6527 262.583 81.488 262.583 82.44C262.583 83.9053 262.915 85.0767 263.577 85.954C264.249 86.822 265.234 87.256 266.531 87.256ZM283.868 90.42C282.393 90.42 281.157 90.07 280.158 89.37C279.159 88.67 278.408 87.718 277.904 86.514C277.4 85.3007 277.148 83.9427 277.148 82.44C277.148 80.9187 277.4 79.556 277.904 78.352C278.408 77.148 279.145 76.2007 280.116 75.51C281.096 74.81 282.305 74.46 283.742 74.46C285.17 74.46 286.407 74.81 287.452 75.51C288.507 76.2007 289.323 77.148 289.902 78.352C290.481 79.5467 290.77 80.9093 290.77 82.44C290.77 83.952 290.485 85.31 289.916 86.514C289.347 87.718 288.544 88.67 287.508 89.37C286.472 90.07 285.259 90.42 283.868 90.42ZM276.574 96.72V74.88H279.556V85.492H279.976V96.72H276.574ZM283.35 87.396C284.227 87.396 284.951 87.1767 285.52 86.738C286.089 86.2993 286.509 85.7067 286.78 84.96C287.06 84.204 287.2 83.364 287.2 82.44C287.2 81.5253 287.06 80.6947 286.78 79.948C286.5 79.192 286.066 78.5947 285.478 78.156C284.89 77.708 284.143 77.484 283.238 77.484C282.379 77.484 281.679 77.694 281.138 78.114C280.597 78.5247 280.195 79.1033 279.934 79.85C279.682 80.5873 279.556 81.4507 279.556 82.44C279.556 83.42 279.682 84.2833 279.934 85.03C280.195 85.7767 280.601 86.36 281.152 86.78C281.712 87.1907 282.445 87.396 283.35 87.396ZM298.125 90.42C296.688 90.42 295.376 90.1167 294.191 89.51C293.006 88.9033 292.072 88.0727 291.391 87.018L294.051 85.24C294.592 85.884 295.194 86.3833 295.857 86.738C296.52 87.0833 297.257 87.256 298.069 87.256C298.918 87.256 299.586 87.0693 300.071 86.696C300.556 86.3227 300.799 85.8233 300.799 85.198C300.799 84.6473 300.636 84.26 300.309 84.036C299.982 83.8027 299.553 83.6627 299.021 83.616C298.489 83.5693 297.92 83.546 297.313 83.546H296.193V80.872H297.299C298.148 80.872 298.858 80.774 299.427 80.578C300.006 80.382 300.295 79.948 300.295 79.276C300.295 78.6693 300.071 78.24 299.623 77.988C299.175 77.7267 298.652 77.596 298.055 77.596C297.327 77.596 296.608 77.75 295.899 78.058C295.19 78.366 294.555 78.7393 293.995 79.178L292.091 76.882C292.931 76.1353 293.869 75.5473 294.905 75.118C295.941 74.6793 297.047 74.46 298.223 74.46C299.194 74.46 300.099 74.628 300.939 74.964C301.788 75.3 302.47 75.804 302.983 76.476C303.506 77.148 303.767 77.9787 303.767 78.968C303.767 79.6773 303.613 80.3447 303.305 80.97C303.006 81.5953 302.526 82.188 301.863 82.748L301.821 81.656C302.334 81.8707 302.768 82.1693 303.123 82.552C303.487 82.9347 303.762 83.3827 303.949 83.896C304.145 84.4093 304.243 84.9553 304.243 85.534C304.243 86.5887 303.963 87.48 303.403 88.208C302.843 88.936 302.096 89.4867 301.163 89.86C300.239 90.2333 299.226 90.42 298.125 90.42ZM319.867 74.88V90H316.633V80.13L309.437 90H306.735V74.88H309.969V84.498L317.193 74.88H319.867ZM323.21 90V74.88H326.584V80.844H333.374V74.88H336.748V90H333.374V84.008H326.584V90H323.21ZM353.2 74.88V90H349.966V80.13L342.77 90H340.068V74.88H343.302V84.498L350.526 74.88H353.2Z" fill="#F3F9F6"/>
<path d="M81.6165 111.321V109.998H89.4964V111.321H86.3196V120.18H84.7884V111.321H81.6165ZM93.2276 120.334C92.5117 120.334 91.887 120.17 91.3533 119.842C90.8197 119.514 90.4054 119.055 90.1104 118.465C89.8155 117.875 89.668 117.185 89.668 116.397C89.668 115.604 89.8155 114.912 90.1104 114.318C90.4054 113.725 90.8197 113.265 91.3533 112.936C91.887 112.608 92.5117 112.444 93.2276 112.444C93.9435 112.444 94.5683 112.608 95.1019 112.936C95.6355 113.265 96.0498 113.725 96.3448 114.318C96.6398 114.912 96.7873 115.604 96.7873 116.397C96.7873 117.185 96.6398 117.875 96.3448 118.465C96.0498 119.055 95.6355 119.514 95.1019 119.842C94.5683 120.17 93.9435 120.334 93.2276 120.334ZM93.2326 119.086C93.6966 119.086 94.0811 118.964 94.386 118.718C94.6909 118.473 94.9163 118.147 95.0621 117.739C95.2113 117.331 95.2859 116.882 95.2859 116.392C95.2859 115.904 95.2113 115.457 95.0621 115.049C94.9163 114.638 94.6909 114.309 94.386 114.06C94.0811 113.811 93.6966 113.687 93.2326 113.687C92.7653 113.687 92.3775 113.811 92.0692 114.06C91.7643 114.309 91.5373 114.638 91.3881 115.049C91.2423 115.457 91.1694 115.904 91.1694 116.392C91.1694 116.882 91.2423 117.331 91.3881 117.739C91.5373 118.147 91.7643 118.473 92.0692 118.718C92.3775 118.964 92.7653 119.086 93.2326 119.086ZM98.4466 120.18V112.544H101.613C102.475 112.544 103.158 112.728 103.662 113.095C104.166 113.46 104.417 113.956 104.417 114.582C104.417 115.029 104.275 115.384 103.99 115.646C103.705 115.908 103.327 116.083 102.856 116.173C103.198 116.213 103.511 116.315 103.796 116.481C104.081 116.644 104.31 116.862 104.482 117.137C104.658 117.412 104.746 117.741 104.746 118.122C104.746 118.526 104.641 118.884 104.432 119.196C104.224 119.504 103.92 119.746 103.523 119.921C103.128 120.094 102.653 120.18 102.096 120.18H98.4466ZM99.8436 118.937H102.096C102.464 118.937 102.752 118.849 102.961 118.674C103.17 118.498 103.274 118.259 103.274 117.958C103.274 117.603 103.17 117.325 102.961 117.122C102.752 116.917 102.464 116.814 102.096 116.814H99.8436V118.937ZM99.8436 115.725H101.628C101.907 115.725 102.145 115.686 102.344 115.606C102.546 115.527 102.701 115.414 102.807 115.268C102.916 115.119 102.971 114.943 102.971 114.741C102.971 114.446 102.85 114.216 102.608 114.05C102.366 113.884 102.034 113.801 101.613 113.801H99.8436V115.725ZM108.599 120.349C108.115 120.349 107.677 120.26 107.286 120.081C106.895 119.898 106.585 119.635 106.356 119.29C106.131 118.945 106.018 118.523 106.018 118.022C106.018 117.591 106.101 117.237 106.267 116.958C106.433 116.68 106.656 116.46 106.938 116.297C107.22 116.135 107.535 116.012 107.883 115.929C108.231 115.846 108.585 115.783 108.947 115.74C109.404 115.687 109.775 115.644 110.06 115.611C110.345 115.575 110.552 115.517 110.682 115.437C110.811 115.358 110.876 115.228 110.876 115.049V115.015C110.876 114.58 110.753 114.244 110.508 114.005C110.266 113.767 109.904 113.647 109.424 113.647C108.923 113.647 108.529 113.758 108.241 113.98C107.956 114.199 107.758 114.443 107.649 114.711L106.252 114.393C106.418 113.929 106.66 113.555 106.978 113.269C107.299 112.981 107.669 112.772 108.086 112.643C108.504 112.51 108.943 112.444 109.404 112.444C109.709 112.444 110.032 112.481 110.373 112.554C110.718 112.623 111.04 112.752 111.338 112.941C111.64 113.13 111.886 113.4 112.079 113.752C112.271 114.1 112.367 114.552 112.367 115.109V120.18H110.915V119.136H110.856C110.76 119.328 110.615 119.517 110.423 119.703C110.231 119.888 109.984 120.042 109.682 120.165C109.381 120.288 109.019 120.349 108.599 120.349ZM108.922 119.156C109.333 119.156 109.684 119.075 109.976 118.912C110.271 118.75 110.494 118.538 110.647 118.276C110.803 118.011 110.881 117.727 110.881 117.426V116.441C110.827 116.494 110.725 116.544 110.572 116.591C110.423 116.634 110.252 116.672 110.06 116.705C109.868 116.735 109.681 116.763 109.498 116.789C109.316 116.813 109.164 116.832 109.041 116.849C108.753 116.885 108.489 116.947 108.251 117.033C108.015 117.119 107.826 117.243 107.684 117.406C107.545 117.565 107.475 117.777 107.475 118.042C107.475 118.41 107.611 118.689 107.883 118.877C108.154 119.063 108.501 119.156 108.922 119.156ZM114.347 123.044V112.544H115.799V113.782H115.923C116.009 113.622 116.133 113.439 116.296 113.23C116.458 113.021 116.684 112.839 116.972 112.683C117.26 112.524 117.641 112.444 118.115 112.444C118.732 112.444 119.282 112.6 119.766 112.912C120.25 113.223 120.629 113.672 120.904 114.259C121.183 114.845 121.322 115.551 121.322 116.377C121.322 117.202 121.185 117.91 120.909 118.5C120.634 119.086 120.257 119.539 119.776 119.857C119.295 120.172 118.747 120.329 118.13 120.329C117.666 120.329 117.287 120.251 116.992 120.095C116.7 119.94 116.471 119.757 116.306 119.549C116.14 119.34 116.012 119.154 115.923 118.992H115.833V123.044H114.347ZM115.804 116.362C115.804 116.899 115.882 117.369 116.037 117.774C116.193 118.178 116.418 118.495 116.713 118.723C117.008 118.949 117.37 119.061 117.797 119.061C118.241 119.061 118.613 118.944 118.911 118.708C119.209 118.47 119.435 118.147 119.587 117.739C119.743 117.331 119.821 116.872 119.821 116.362C119.821 115.858 119.744 115.406 119.592 115.005C119.443 114.604 119.217 114.287 118.916 114.055C118.618 113.823 118.245 113.707 117.797 113.707C117.366 113.707 117.002 113.818 116.703 114.04C116.408 114.262 116.185 114.572 116.032 114.97C115.88 115.367 115.804 115.832 115.804 116.362ZM122.988 120.18V112.544H124.474V120.18H122.988ZM123.738 111.365C123.48 111.365 123.258 111.279 123.072 111.107C122.89 110.931 122.799 110.722 122.799 110.48C122.799 110.235 122.89 110.026 123.072 109.854C123.258 109.678 123.48 109.591 123.738 109.591C123.997 109.591 124.217 109.678 124.4 109.854C124.585 110.026 124.678 110.235 124.678 110.48C124.678 110.722 124.585 110.931 124.4 111.107C124.217 111.279 123.997 111.365 123.738 111.365ZM126.474 120.18V112.544H129.641C130.503 112.544 131.185 112.728 131.689 113.095C132.193 113.46 132.445 113.956 132.445 114.582C132.445 115.029 132.302 115.384 132.017 115.646C131.732 115.908 131.354 116.083 130.884 116.173C131.225 116.213 131.538 116.315 131.823 116.481C132.108 116.644 132.337 116.862 132.509 117.137C132.685 117.412 132.773 117.741 132.773 118.122C132.773 118.526 132.669 118.884 132.46 119.196C132.251 119.504 131.948 119.746 131.55 119.921C131.155 120.094 130.68 120.18 130.123 120.18H126.474ZM127.871 118.937H130.123C130.491 118.937 130.779 118.849 130.988 118.674C131.197 118.498 131.301 118.259 131.301 117.958C131.301 117.603 131.197 117.325 130.988 117.122C130.779 116.917 130.491 116.814 130.123 116.814H127.871V118.937ZM127.871 115.725H129.656C129.934 115.725 130.173 115.686 130.372 115.606C130.574 115.527 130.728 115.414 130.834 115.268C130.943 115.119 130.998 114.943 130.998 114.741C130.998 114.446 130.877 114.216 130.635 114.05C130.393 113.884 130.062 113.801 129.641 113.801H127.871V115.725ZM139.048 123.044C138.826 123.044 138.624 123.025 138.442 122.989C138.259 122.956 138.124 122.919 138.034 122.88L138.392 121.662C138.664 121.734 138.906 121.766 139.118 121.756C139.33 121.746 139.517 121.666 139.68 121.517C139.845 121.368 139.991 121.125 140.117 120.787L140.301 120.279L137.507 112.544H139.098L141.032 118.47H141.112L143.045 112.544H144.641L141.494 121.199C141.348 121.597 141.163 121.933 140.938 122.208C140.712 122.487 140.444 122.696 140.132 122.835C139.821 122.974 139.459 123.044 139.048 123.044ZM152.96 120.334C152.221 120.334 151.585 120.167 151.051 119.832C150.521 119.494 150.113 119.028 149.828 118.435C149.543 117.842 149.4 117.162 149.4 116.397C149.4 115.621 149.546 114.937 149.838 114.343C150.13 113.747 150.541 113.281 151.071 112.946C151.601 112.612 152.226 112.444 152.945 112.444C153.525 112.444 154.042 112.552 154.496 112.767C154.95 112.979 155.317 113.278 155.595 113.662C155.877 114.047 156.044 114.496 156.097 115.01H154.65C154.571 114.652 154.389 114.343 154.104 114.085C153.822 113.826 153.444 113.697 152.97 113.697C152.556 113.697 152.193 113.806 151.881 114.025C151.573 114.241 151.333 114.549 151.16 114.95C150.988 115.348 150.902 115.818 150.902 116.362C150.902 116.919 150.986 117.399 151.155 117.804C151.324 118.208 151.563 118.521 151.871 118.743C152.183 118.965 152.549 119.076 152.97 119.076C153.252 119.076 153.507 119.025 153.736 118.922C153.968 118.816 154.162 118.665 154.317 118.47C154.476 118.274 154.587 118.039 154.65 117.764H156.097C156.044 118.258 155.883 118.698 155.615 119.086C155.346 119.474 154.987 119.779 154.536 120.001C154.089 120.223 153.563 120.334 152.96 120.334ZM157.687 120.18V112.544H163.916V120.18H162.46V113.826H159.134V120.18H157.687ZM167.36 118.097L170.726 112.544H172.327V120.18H170.87V114.622L167.519 120.18H165.904V112.544H167.36V118.097ZM177.542 120.334C176.803 120.334 176.167 120.167 175.633 119.832C175.103 119.494 174.695 119.028 174.41 118.435C174.125 117.842 173.982 117.162 173.982 116.397C173.982 115.621 174.128 114.937 174.42 114.343C174.712 113.747 175.123 113.281 175.653 112.946C176.183 112.612 176.808 112.444 177.527 112.444C178.107 112.444 178.624 112.552 179.078 112.767C179.532 112.979 179.899 113.278 180.177 113.662C180.459 114.047 180.626 114.496 180.679 115.01H179.232C179.153 114.652 178.971 114.343 178.686 114.085C178.404 113.826 178.026 113.697 177.552 113.697C177.138 113.697 176.775 113.806 176.463 114.025C176.155 114.241 175.915 114.549 175.742 114.95C175.57 115.348 175.484 115.818 175.484 116.362C175.484 116.919 175.568 117.399 175.737 117.804C175.906 118.208 176.145 118.521 176.453 118.743C176.765 118.965 177.131 119.076 177.552 119.076C177.834 119.076 178.089 119.025 178.318 118.922C178.55 118.816 178.744 118.665 178.899 118.47C179.058 118.274 179.169 118.039 179.232 117.764H180.679C180.626 118.258 180.465 118.698 180.197 119.086C179.928 119.474 179.569 119.779 179.118 120.001C178.671 120.223 178.145 120.334 177.542 120.334ZM182.269 120.18V112.544H183.755V115.745H184.471L186.992 112.544H188.831L185.873 116.257L188.866 120.18H187.022L184.72 117.127H183.755V120.18H182.269ZM191.001 123.044C190.779 123.044 190.577 123.025 190.395 122.989C190.213 122.956 190.077 122.919 189.987 122.88L190.345 121.662C190.617 121.734 190.859 121.766 191.071 121.756C191.283 121.746 191.47 121.666 191.633 121.517C191.799 121.368 191.944 121.125 192.07 120.787L192.254 120.279L189.46 112.544H191.051L192.985 118.47H193.065L194.999 112.544H196.594L193.447 121.199C193.302 121.597 193.116 121.933 192.891 122.208C192.665 122.487 192.397 122.696 192.085 122.835C191.774 122.974 191.412 123.044 191.001 123.044ZM198.971 120.274C198.699 120.274 198.465 120.178 198.27 119.986C198.074 119.791 197.977 119.555 197.977 119.28C197.977 119.008 198.074 118.776 198.27 118.584C198.465 118.389 198.699 118.291 198.971 118.291C199.243 118.291 199.476 118.389 199.672 118.584C199.867 118.776 199.965 119.008 199.965 119.28C199.965 119.462 199.919 119.63 199.826 119.782C199.737 119.931 199.617 120.051 199.468 120.14C199.319 120.23 199.153 120.274 198.971 120.274ZM198.971 114.716C198.699 114.716 198.465 114.618 198.27 114.423C198.074 114.227 197.977 113.994 197.977 113.722C197.977 113.45 198.074 113.218 198.27 113.026C198.465 112.83 198.699 112.733 198.971 112.733C199.243 112.733 199.476 112.83 199.672 113.026C199.867 113.218 199.965 113.45 199.965 113.722C199.965 113.904 199.919 114.072 199.826 114.224C199.737 114.373 199.617 114.492 199.468 114.582C199.319 114.671 199.153 114.716 198.971 114.716ZM209.504 109.998V120.18H207.963V111.539H207.904L205.468 113.13V111.659L208.008 109.998H209.504ZM212.259 120.18V119.066L215.704 115.497C216.072 115.109 216.375 114.769 216.614 114.478C216.856 114.183 217.036 113.903 217.156 113.637C217.275 113.372 217.335 113.091 217.335 112.792C217.335 112.454 217.255 112.162 217.096 111.917C216.937 111.669 216.72 111.478 216.445 111.345C216.17 111.21 215.86 111.142 215.515 111.142C215.151 111.142 214.832 111.216 214.561 111.365C214.289 111.515 214.08 111.725 213.934 111.997C213.788 112.269 213.715 112.587 213.715 112.951H212.249C212.249 112.332 212.391 111.79 212.676 111.326C212.961 110.862 213.352 110.502 213.85 110.247C214.347 109.988 214.912 109.859 215.545 109.859C216.185 109.859 216.748 109.987 217.235 110.242C217.726 110.494 218.109 110.838 218.384 111.276C218.659 111.71 218.796 112.201 218.796 112.747C218.796 113.125 218.725 113.495 218.583 113.856C218.443 114.217 218.2 114.62 217.852 115.064C217.504 115.505 217.02 116.04 216.4 116.67L214.377 118.788V118.863H218.96V120.18H212.259Z" fill="#94A3B8"/>
<rect x="81" y="150.28" width="122.66" height="29.44" rx="6" fill="#FDC80D"/>
<path d="M93.7156 169.28V159.825H96.0007V163.62H99.7262V159.825H102.007V169.28H99.7262V165.481H96.0007V169.28H93.7156ZM105.439 169.4C104.987 169.4 104.585 169.325 104.234 169.174C103.886 169.02 103.611 168.789 103.408 168.481C103.208 168.171 103.108 167.781 103.108 167.313C103.108 166.919 103.177 166.587 103.316 166.316C103.454 166.045 103.645 165.825 103.888 165.656C104.131 165.487 104.411 165.359 104.728 165.273C105.045 165.184 105.384 165.124 105.744 165.093C106.147 165.056 106.472 165.017 106.718 164.977C106.964 164.934 107.143 164.874 107.253 164.797C107.367 164.717 107.424 164.605 107.424 164.46V164.437C107.424 164.2 107.343 164.017 107.18 163.888C107.016 163.759 106.796 163.694 106.519 163.694C106.221 163.694 105.981 163.759 105.799 163.888C105.618 164.017 105.502 164.196 105.453 164.423L103.371 164.35C103.432 163.919 103.591 163.534 103.846 163.195C104.105 162.854 104.459 162.586 104.908 162.392C105.361 162.195 105.904 162.097 106.538 162.097C106.99 162.097 107.407 162.151 107.789 162.258C108.171 162.363 108.503 162.517 108.786 162.72C109.069 162.92 109.288 163.166 109.442 163.459C109.599 163.751 109.677 164.085 109.677 164.46V169.28H107.553V168.292H107.498C107.372 168.532 107.21 168.735 107.013 168.901C106.819 169.068 106.59 169.192 106.325 169.275C106.064 169.358 105.768 169.4 105.439 169.4ZM106.136 167.923C106.379 167.923 106.598 167.874 106.792 167.775C106.989 167.677 107.146 167.541 107.263 167.369C107.38 167.193 107.438 166.99 107.438 166.759V166.085C107.373 166.119 107.295 166.15 107.203 166.178C107.113 166.205 107.015 166.232 106.907 166.256C106.799 166.281 106.689 166.302 106.575 166.321C106.461 166.339 106.352 166.356 106.247 166.372C106.035 166.405 105.853 166.458 105.702 166.529C105.555 166.599 105.441 166.692 105.361 166.806C105.284 166.916 105.245 167.049 105.245 167.203C105.245 167.436 105.328 167.615 105.494 167.738C105.664 167.861 105.878 167.923 106.136 167.923ZM113.195 166.358L115.461 162.189H117.631V169.28H115.494V165.097L113.232 169.28H111.057V162.189H113.195V166.358ZM115.258 159.678H116.745C116.742 160.256 116.523 160.721 116.089 161.072C115.658 161.423 115.074 161.598 114.335 161.598C113.596 161.598 113.01 161.423 112.576 161.072C112.145 160.721 111.931 160.256 111.934 159.678H113.407C113.404 159.881 113.473 160.066 113.615 160.232C113.756 160.398 113.997 160.481 114.335 160.481C114.664 160.481 114.9 160.399 115.041 160.236C115.183 160.073 115.255 159.887 115.258 159.678ZM119.068 169.28V162.189H121.326V164.83H121.824L123.546 162.189H126.159L123.772 165.739L126.182 169.28H123.537L121.981 166.926H121.326V169.28H119.068ZM126.888 171.939V162.189H129.123V163.403H129.192C129.284 163.188 129.415 162.98 129.584 162.78C129.757 162.58 129.975 162.417 130.24 162.291C130.508 162.161 130.828 162.097 131.2 162.097C131.693 162.097 132.153 162.226 132.581 162.485C133.011 162.743 133.359 163.142 133.624 163.68C133.889 164.219 134.021 164.905 134.021 165.739C134.021 166.542 133.893 167.215 133.638 167.757C133.385 168.298 133.044 168.704 132.613 168.975C132.185 169.246 131.71 169.382 131.186 169.382C130.829 169.382 130.52 169.323 130.258 169.206C129.997 169.089 129.777 168.935 129.598 168.744C129.423 168.554 129.287 168.349 129.192 168.13H129.146V171.939H126.888ZM129.1 165.735C129.1 166.116 129.15 166.449 129.252 166.732C129.357 167.015 129.506 167.235 129.7 167.392C129.897 167.546 130.132 167.623 130.406 167.623C130.683 167.623 130.919 167.546 131.112 167.392C131.306 167.235 131.453 167.015 131.551 166.732C131.653 166.449 131.703 166.116 131.703 165.735C131.703 165.353 131.653 165.022 131.551 164.742C131.453 164.462 131.306 164.245 131.112 164.091C130.922 163.937 130.686 163.86 130.406 163.86C130.129 163.86 129.894 163.936 129.7 164.086C129.506 164.237 129.357 164.453 129.252 164.733C129.15 165.013 129.1 165.347 129.1 165.735ZM137.203 169.4C136.75 169.4 136.349 169.325 135.998 169.174C135.65 169.02 135.375 168.789 135.172 168.481C134.971 168.171 134.871 167.781 134.871 167.313C134.871 166.919 134.941 166.587 135.079 166.316C135.218 166.045 135.408 165.825 135.652 165.656C135.895 165.487 136.175 165.359 136.492 165.273C136.809 165.184 137.147 165.124 137.507 165.093C137.911 165.056 138.235 165.017 138.482 164.977C138.728 164.934 138.906 164.874 139.017 164.797C139.131 164.717 139.188 164.605 139.188 164.46V164.437C139.188 164.2 139.106 164.017 138.943 163.888C138.78 163.759 138.56 163.694 138.283 163.694C137.984 163.694 137.744 163.759 137.563 163.888C137.381 164.017 137.266 164.196 137.217 164.423L135.135 164.35C135.196 163.919 135.355 163.534 135.61 163.195C135.869 162.854 136.223 162.586 136.672 162.392C137.124 162.195 137.667 162.097 138.301 162.097C138.754 162.097 139.171 162.151 139.553 162.258C139.934 162.363 140.267 162.517 140.55 162.72C140.833 162.92 141.051 163.166 141.205 163.459C141.362 163.751 141.441 164.085 141.441 164.46V169.28H139.317V168.292H139.262C139.136 168.532 138.974 168.735 138.777 168.901C138.583 169.068 138.354 169.192 138.089 169.275C137.828 169.358 137.532 169.4 137.203 169.4ZM137.9 167.923C138.143 167.923 138.362 167.874 138.555 167.775C138.752 167.677 138.909 167.541 139.026 167.369C139.143 167.193 139.202 166.99 139.202 166.759V166.085C139.137 166.119 139.059 166.15 138.966 166.178C138.877 166.205 138.779 166.232 138.671 166.256C138.563 166.281 138.452 166.302 138.338 166.321C138.225 166.339 138.115 166.356 138.011 166.372C137.798 166.405 137.617 166.458 137.466 166.529C137.318 166.599 137.204 166.692 137.124 166.806C137.047 166.916 137.009 167.049 137.009 167.203C137.009 167.436 137.092 167.615 137.258 167.738C137.427 167.861 137.641 167.923 137.9 167.923ZM154.45 167.553L154.302 171.311H152.276V169.28H151.532V167.553H154.45ZM142.821 162.189H144.958V167.54H146.736V162.189H148.873V167.54H150.651V162.189H152.788V169.28H142.821V162.189ZM157.49 169.4C157.037 169.4 156.636 169.325 156.285 169.174C155.937 169.02 155.662 168.789 155.459 168.481C155.259 168.171 155.159 167.781 155.159 167.313C155.159 166.919 155.228 166.587 155.366 166.316C155.505 166.045 155.696 165.825 155.939 165.656C156.182 165.487 156.462 165.359 156.779 165.273C157.096 165.184 157.434 165.124 157.795 165.093C158.198 165.056 158.522 165.017 158.769 164.977C159.015 164.934 159.193 164.874 159.304 164.797C159.418 164.717 159.475 164.605 159.475 164.46V164.437C159.475 164.2 159.393 164.017 159.23 163.888C159.067 163.759 158.847 163.694 158.57 163.694C158.272 163.694 158.032 163.759 157.85 163.888C157.668 164.017 157.553 164.196 157.504 164.423L155.422 164.35C155.483 163.919 155.642 163.534 155.897 163.195C156.156 162.854 156.51 162.586 156.959 162.392C157.411 162.195 157.955 162.097 158.589 162.097C159.041 162.097 159.458 162.151 159.84 162.258C160.221 162.363 160.554 162.517 160.837 162.72C161.12 162.92 161.338 163.166 161.492 163.459C161.649 163.751 161.728 164.085 161.728 164.46V169.28H159.604V168.292H159.549C159.423 168.532 159.261 168.735 159.064 168.901C158.87 169.068 158.641 169.192 158.376 169.275C158.115 169.358 157.819 169.4 157.49 169.4ZM158.187 167.923C158.43 167.923 158.649 167.874 158.843 167.775C159.039 167.677 159.196 167.541 159.313 167.369C159.43 167.193 159.489 166.99 159.489 166.759V166.085C159.424 166.119 159.346 166.15 159.253 166.178C159.164 166.205 159.066 166.232 158.958 166.256C158.85 166.281 158.739 166.302 158.626 166.321C158.512 166.339 158.402 166.356 158.298 166.372C158.085 166.405 157.904 166.458 157.753 166.529C157.605 166.599 157.491 166.692 157.411 166.806C157.334 166.916 157.296 167.049 157.296 167.203C157.296 167.436 157.379 167.615 157.545 167.738C157.715 167.861 157.928 167.923 158.187 167.923ZM172.304 162.189V167.807H173.481V171.556H171.298V169.28H165.901V162.189H168.039V167.553H170.199V162.189H172.304ZM174.534 169.28V162.189H176.791V169.28H174.534ZM175.665 161.363C175.348 161.363 175.076 161.258 174.848 161.049C174.62 160.836 174.506 160.581 174.506 160.282C174.506 159.987 174.62 159.735 174.848 159.525C175.076 159.313 175.348 159.207 175.665 159.207C175.985 159.207 176.257 159.313 176.482 159.525C176.71 159.735 176.824 159.987 176.824 160.282C176.824 160.581 176.71 160.836 176.482 161.049C176.257 161.258 175.985 161.363 175.665 161.363ZM183.228 164.853V166.575H179.59V164.853H183.228ZM180.366 162.189V169.28H178.228V162.189H180.366ZM184.59 162.189V169.28H182.466V162.189H184.59ZM187.959 169.4C187.506 169.4 187.105 169.325 186.754 169.174C186.406 169.02 186.131 168.789 185.927 168.481C185.727 168.171 185.627 167.781 185.627 167.313C185.627 166.919 185.697 166.587 185.835 166.316C185.974 166.045 186.164 165.825 186.407 165.656C186.651 165.487 186.931 165.359 187.248 165.273C187.565 165.184 187.903 165.124 188.263 165.093C188.666 165.056 188.991 165.017 189.237 164.977C189.484 164.934 189.662 164.874 189.773 164.797C189.887 164.717 189.944 164.605 189.944 164.46V164.437C189.944 164.2 189.862 164.017 189.699 163.888C189.536 163.759 189.316 163.694 189.039 163.694C188.74 163.694 188.5 163.759 188.319 163.888C188.137 164.017 188.022 164.196 187.972 164.423L185.89 164.35C185.952 163.919 186.11 163.534 186.366 163.195C186.624 162.854 186.978 162.586 187.428 162.392C187.88 162.195 188.423 162.097 189.057 162.097C189.51 162.097 189.927 162.151 190.308 162.258C190.69 162.363 191.022 162.517 191.306 162.72C191.589 162.92 191.807 163.166 191.961 163.459C192.118 163.751 192.197 164.085 192.197 164.46V169.28H190.073V168.292H190.018C189.891 168.532 189.73 168.735 189.533 168.901C189.339 169.068 189.11 169.192 188.845 169.275C188.583 169.358 188.288 169.4 187.959 169.4ZM188.656 167.923C188.899 167.923 189.117 167.874 189.311 167.775C189.508 167.677 189.665 167.541 189.782 167.369C189.899 167.193 189.958 166.99 189.958 166.759V166.085C189.893 166.119 189.814 166.15 189.722 166.178C189.633 166.205 189.534 166.232 189.427 166.256C189.319 166.281 189.208 166.302 189.094 166.321C188.98 166.339 188.871 166.356 188.767 166.372C188.554 166.405 188.373 166.458 188.222 166.529C188.074 166.599 187.96 166.692 187.88 166.806C187.803 166.916 187.765 167.049 187.765 167.203C187.765 167.436 187.848 167.615 188.014 167.738C188.183 167.861 188.397 167.923 188.656 167.923Z" fill="#111A17"/>
<path d="M97 208.377V235.043M103.667 212.377H93.6667C92.429 212.377 91.242 212.868 90.3668 213.743C89.4917 214.619 89 215.806 89 217.043C89 218.281 89.4917 219.468 90.3668 220.343C91.242 221.218 92.429 221.71 93.6667 221.71H100.333C101.571 221.71 102.758 222.202 103.633 223.077C104.508 223.952 105 225.139 105 226.377C105 227.614 104.508 228.801 103.633 229.676C102.758 230.552 101.571 231.043 100.333 231.043H89" stroke="#4ADE80" stroke-width="3.33333" stroke-linecap="round" stroke-linejoin="round"/>
<path d="M138.068 235.71V231.678H126.8V227.106L134.972 209.79H140.588L132.416 227.106H138.068V220.626H143.036V227.106H145.34V231.678H143.036V235.71H138.068ZM148.948 235.674V231.426L159.82 221.778C160.636 221.058 161.212 220.38 161.548 219.744C161.884 219.108 162.052 218.514 162.052 217.962C162.052 217.17 161.89 216.468 161.566 215.856C161.242 215.232 160.786 214.746 160.198 214.398C159.61 214.038 158.92 213.858 158.128 213.858C157.3 213.858 156.568 214.05 155.932 214.434C155.308 214.806 154.822 215.304 154.474 215.928C154.126 216.54 153.964 217.206 153.988 217.926H148.948C148.948 216.15 149.338 214.614 150.118 213.318C150.898 212.022 151.984 211.02 153.376 210.312C154.768 209.604 156.388 209.25 158.236 209.25C159.928 209.25 161.44 209.622 162.772 210.366C164.116 211.098 165.172 212.124 165.94 213.444C166.708 214.764 167.092 216.294 167.092 218.034C167.092 219.318 166.912 220.386 166.552 221.238C166.192 222.078 165.658 222.858 164.95 223.578C164.242 224.286 163.372 225.09 162.34 225.99L155.32 232.146L154.924 231.066H167.092V235.674H148.948ZM180.431 236.25C178.715 236.25 177.173 235.848 175.805 235.044C174.449 234.24 173.375 233.124 172.583 231.696C171.791 230.256 171.395 228.594 171.395 226.71V219.186C171.395 217.146 171.791 215.388 172.583 213.912C173.375 212.424 174.491 211.284 175.931 210.492C177.371 209.688 179.063 209.286 181.007 209.286C182.267 209.286 183.467 209.472 184.607 209.844C185.747 210.216 186.791 210.846 187.739 211.734L184.247 215.226C183.815 214.794 183.317 214.458 182.753 214.218C182.189 213.978 181.607 213.858 181.007 213.858C180.071 213.858 179.255 214.08 178.559 214.524C177.875 214.956 177.341 215.526 176.957 216.234C176.585 216.93 176.399 217.674 176.399 218.466V222.318L175.571 221.418C176.315 220.662 177.173 220.086 178.145 219.69C179.129 219.282 180.143 219.078 181.187 219.078C182.819 219.078 184.253 219.444 185.489 220.176C186.737 220.908 187.709 221.91 188.405 223.182C189.113 224.454 189.467 225.906 189.467 227.538C189.467 229.17 189.053 230.646 188.225 231.966C187.397 233.274 186.299 234.318 184.931 235.098C183.563 235.866 182.063 236.25 180.431 236.25ZM180.431 231.57C181.175 231.57 181.853 231.39 182.465 231.03C183.089 230.67 183.581 230.184 183.941 229.572C184.313 228.96 184.499 228.282 184.499 227.538C184.499 226.794 184.319 226.116 183.959 225.504C183.599 224.88 183.113 224.388 182.501 224.028C181.889 223.656 181.211 223.47 180.467 223.47C179.723 223.47 179.039 223.656 178.415 224.028C177.803 224.388 177.311 224.88 176.939 225.504C176.579 226.116 176.399 226.794 176.399 227.538C176.399 228.258 176.579 228.924 176.939 229.536C177.299 230.148 177.785 230.64 178.397 231.012C179.009 231.384 179.687 231.57 180.431 231.57ZM200.997 235.71V216.27H215.037V220.842H205.893V235.71H200.997ZM228.009 236.25C226.077 236.25 224.463 235.8 223.167 234.9C221.871 234 220.893 232.776 220.233 231.228C219.585 229.68 219.261 227.934 219.261 225.99C219.261 224.046 219.585 222.3 220.233 220.752C220.881 219.204 221.835 217.98 223.095 217.08C224.355 216.18 225.909 215.73 227.757 215.73C229.617 215.73 231.237 216.174 232.617 217.062C233.997 217.95 235.065 219.168 235.821 220.716C236.589 222.252 236.973 224.01 236.973 225.99C236.973 227.934 236.595 229.68 235.839 231.228C235.095 232.776 234.051 234 232.707 234.9C231.363 235.8 229.797 236.25 228.009 236.25ZM218.433 244.35V216.27H222.753V229.59H223.365V244.35H218.433ZM227.217 231.894C228.273 231.894 229.137 231.63 229.809 231.102C230.481 230.574 230.979 229.866 231.303 228.978C231.627 228.078 231.789 227.082 231.789 225.99C231.789 224.91 231.621 223.926 231.285 223.038C230.949 222.138 230.427 221.424 229.719 220.896C229.023 220.356 228.129 220.086 227.037 220.086C226.017 220.086 225.189 220.332 224.553 220.824C223.929 221.316 223.473 222.006 223.185 222.894C222.897 223.782 222.753 224.814 222.753 225.99C222.753 227.166 222.897 228.198 223.185 229.086C223.473 229.974 223.941 230.664 224.589 231.156C225.249 231.648 226.125 231.894 227.217 231.894ZM240.898 235.71V216.27H245.794V223.686H253.786V216.27H258.682V235.71H253.786V228.258H245.794V235.71H240.898ZM279.958 236.25C277.966 236.25 276.208 235.824 274.684 234.972C273.172 234.108 271.984 232.926 271.12 231.426C270.268 229.914 269.842 228.186 269.842 226.242C269.842 224.118 270.262 222.27 271.102 220.698C271.942 219.126 273.1 217.908 274.576 217.044C276.052 216.168 277.75 215.73 279.67 215.73C281.71 215.73 283.444 216.21 284.872 217.17C286.3 218.13 287.356 219.48 288.04 221.22C288.724 222.96 288.964 225.006 288.76 227.358H283.918V225.558C283.918 223.578 283.6 222.156 282.964 221.292C282.34 220.416 281.314 219.978 279.886 219.978C278.218 219.978 276.988 220.488 276.196 221.508C275.416 222.516 275.026 224.01 275.026 225.99C275.026 227.802 275.416 229.206 276.196 230.202C276.988 231.186 278.146 231.678 279.67 231.678C280.63 231.678 281.452 231.468 282.136 231.048C282.82 230.628 283.342 230.022 283.702 229.23L288.598 230.634C287.866 232.41 286.708 233.79 285.124 234.774C283.552 235.758 281.83 236.25 279.958 236.25ZM273.514 227.358V223.722H286.402V227.358H273.514ZM292.789 235.71L292.825 216.27H297.793V225.63L304.381 216.27H310.429L303.409 225.99L310.897 235.71H304.525L297.793 226.35V235.71H292.789ZM321.084 236.25C319.128 236.25 317.412 235.812 315.936 234.936C314.46 234.06 313.308 232.854 312.48 231.318C311.664 229.77 311.256 227.994 311.256 225.99C311.256 223.962 311.676 222.18 312.516 220.644C313.356 219.096 314.514 217.89 315.99 217.026C317.466 216.162 319.164 215.73 321.084 215.73C323.04 215.73 324.756 216.168 326.232 217.044C327.72 217.92 328.878 219.132 329.706 220.68C330.534 222.216 330.948 223.986 330.948 225.99C330.948 228.006 330.528 229.788 329.688 231.336C328.86 232.872 327.702 234.078 326.214 234.954C324.738 235.818 323.028 236.25 321.084 236.25ZM321.084 231.678C322.656 231.678 323.826 231.15 324.594 230.094C325.374 229.026 325.764 227.658 325.764 225.99C325.764 224.262 325.368 222.882 324.576 221.85C323.796 220.818 322.632 220.302 321.084 220.302C320.016 220.302 319.14 220.542 318.456 221.022C317.772 221.502 317.262 222.168 316.926 223.02C316.602 223.872 316.44 224.862 316.44 225.99C316.44 227.73 316.83 229.116 317.61 230.148C318.402 231.168 319.56 231.678 321.084 231.678ZM334.871 235.71V216.27H339.767V223.686H347.759V216.27H352.655V235.71H347.759V228.258H339.767V235.71H334.871ZM366.436 236.25C364.48 236.25 362.764 235.812 361.288 234.936C359.812 234.06 358.66 232.854 357.832 231.318C357.016 229.77 356.608 227.994 356.608 225.99C356.608 223.962 357.028 222.18 357.868 220.644C358.708 219.096 359.866 217.89 361.342 217.026C362.818 216.162 364.516 215.73 366.436 215.73C368.392 215.73 370.108 216.168 371.584 217.044C373.072 217.92 374.23 219.132 375.058 220.68C375.886 222.216 376.3 223.986 376.3 225.99C376.3 228.006 375.88 229.788 375.04 231.336C374.212 232.872 373.054 234.078 371.566 234.954C370.09 235.818 368.38 236.25 366.436 236.25ZM366.436 231.678C368.008 231.678 369.178 231.15 369.946 230.094C370.726 229.026 371.116 227.658 371.116 225.99C371.116 224.262 370.72 222.882 369.928 221.85C369.148 220.818 367.984 220.302 366.436 220.302C365.368 220.302 364.492 220.542 363.808 221.022C363.124 221.502 362.614 222.168 362.278 223.02C361.954 223.872 361.792 224.862 361.792 225.99C361.792 227.73 362.182 229.116 362.962 230.148C363.754 231.168 364.912 231.678 366.436 231.678ZM380.222 235.71V216.27H384.182L390.95 228.87L397.718 216.27H401.678V235.71H396.998V226.026L391.814 235.71H390.086L384.902 226.026V235.71H380.222ZM407.091 213.57V209.25H411.987V213.57H407.091ZM407.091 235.71V216.27H411.987V235.71H407.091ZM421.847 213.534V209.214H426.167V213.534H421.847ZM414.215 213.534V209.214H418.535V213.534H414.215ZM417.743 235.71V216.27H422.639V235.71H417.743Z" fill="#4ADE80"/>
<path d="M83.6399 280.71H81.3331L84.848 270.528H87.6222L91.1321 280.71H88.8253L86.2749 272.855H86.1953L83.6399 280.71ZM83.4957 276.708H88.9446V278.388H83.4957V276.708ZM90.7257 272.303V270.528H99.0879V272.303H95.9707V280.71H93.8429V272.303H90.7257ZM100.465 280.71V270.528H107.221V272.303H102.618V274.292H104.273C105.079 274.292 105.773 274.423 106.356 274.684C106.943 274.943 107.395 275.309 107.714 275.783C108.032 276.257 108.191 276.816 108.191 277.459C108.191 278.098 108.032 278.663 107.714 279.154C107.395 279.641 106.943 280.022 106.356 280.297C105.773 280.572 105.079 280.71 104.273 280.71H100.465ZM102.618 278.98H104.273C104.658 278.98 104.983 278.91 105.248 278.771C105.513 278.629 105.713 278.441 105.849 278.209C105.988 277.974 106.058 277.717 106.058 277.439C106.058 277.034 105.904 276.693 105.596 276.415C105.291 276.133 104.85 275.992 104.273 275.992H102.618V278.98Z" fill="#F3F9F6"/>
<g clip-path="url(#clip0_284_2206)">
<rect x="177" y="271.26" width="294" height="8" rx="4" fill="#111A17"/>
<rect x="177" y="271.26" width="294" height="8" rx="4" fill="#4ADE80"/>
</g>
<path d="M511.848 270.528V280.71H509.696V272.572H509.636L507.304 274.033V272.124L509.825 270.528H511.848ZM521.307 280.849C520.541 280.849 519.86 280.725 519.263 280.476C518.67 280.224 518.205 279.881 517.866 279.447C517.528 279.013 517.359 278.521 517.359 277.971C517.359 277.546 517.455 277.157 517.648 276.802C517.843 276.444 518.108 276.148 518.443 275.912C518.778 275.674 519.152 275.521 519.567 275.455V275.385C519.023 275.276 518.582 275.013 518.244 274.595C517.906 274.174 517.737 273.685 517.737 273.128C517.737 272.601 517.891 272.132 518.2 271.721C518.508 271.307 518.93 270.982 519.467 270.747C520.008 270.508 520.621 270.389 521.307 270.389C521.993 270.389 522.604 270.508 523.141 270.747C523.682 270.986 524.106 271.312 524.414 271.726C524.722 272.137 524.878 272.605 524.881 273.128C524.878 273.688 524.706 274.177 524.364 274.595C524.023 275.013 523.585 275.276 523.052 275.385V275.455C523.459 275.521 523.829 275.674 524.16 275.912C524.495 276.148 524.76 276.444 524.956 276.802C525.155 277.157 525.256 277.546 525.259 277.971C525.256 278.521 525.085 279.013 524.747 279.447C524.409 279.881 523.942 280.224 523.345 280.476C522.752 280.725 522.072 280.849 521.307 280.849ZM521.307 279.268C521.648 279.268 521.946 279.207 522.202 279.084C522.457 278.958 522.656 278.786 522.798 278.567C522.944 278.345 523.017 278.09 523.017 277.802C523.017 277.507 522.942 277.246 522.793 277.021C522.644 276.792 522.442 276.613 522.187 276.484C521.932 276.352 521.638 276.285 521.307 276.285C520.979 276.285 520.685 276.352 520.427 276.484C520.168 276.613 519.964 276.792 519.815 277.021C519.669 277.246 519.597 277.507 519.597 277.802C519.597 278.09 519.668 278.345 519.81 278.567C519.953 278.786 520.153 278.958 520.412 279.084C520.67 279.207 520.969 279.268 521.307 279.268ZM521.307 274.719C521.592 274.719 521.845 274.661 522.067 274.545C522.289 274.429 522.464 274.268 522.589 274.063C522.715 273.857 522.778 273.621 522.778 273.352C522.778 273.087 522.715 272.855 522.589 272.656C522.464 272.454 522.291 272.296 522.072 272.184C521.854 272.068 521.598 272.01 521.307 272.01C521.018 272.01 520.763 272.068 520.541 272.184C520.319 272.296 520.145 272.454 520.019 272.656C519.897 272.855 519.835 273.087 519.835 273.352C519.835 273.621 519.898 273.857 520.024 274.063C520.15 274.268 520.324 274.429 520.546 274.545C520.768 274.661 521.022 274.719 521.307 274.719ZM526.61 278.92V277.225L530.861 270.528H532.323V272.875H531.458L528.778 277.116V277.195H534.818V278.92H526.61ZM531.497 280.71V278.403L531.537 277.652V270.528H533.556V280.71H531.497ZM536.253 280.71V279.159L539.877 275.803C540.185 275.505 540.444 275.236 540.652 274.998C540.865 274.759 541.025 274.525 541.135 274.297C541.244 274.065 541.299 273.814 541.299 273.546C541.299 273.248 541.231 272.991 541.095 272.775C540.959 272.557 540.773 272.389 540.538 272.273C540.303 272.154 540.036 272.094 539.738 272.094C539.426 272.094 539.154 272.157 538.922 272.283C538.69 272.409 538.511 272.59 538.385 272.825C538.259 273.06 538.197 273.34 538.197 273.665H536.153C536.153 272.999 536.304 272.421 536.606 271.93C536.907 271.44 537.33 271.06 537.873 270.792C538.417 270.523 539.043 270.389 539.753 270.389C540.482 270.389 541.116 270.518 541.657 270.777C542.2 271.032 542.623 271.387 542.925 271.841C543.226 272.295 543.377 272.815 543.377 273.402C543.377 273.786 543.301 274.166 543.148 274.54C542.999 274.915 542.732 275.331 542.348 275.788C541.963 276.242 541.421 276.787 540.722 277.424L539.236 278.88V278.95H543.511V280.71H536.253ZM552.806 272.139C552.418 272.139 552.124 272.217 551.926 272.373C551.73 272.528 551.626 272.752 551.612 273.044H549.445C549.481 272.474 549.627 271.991 549.882 271.597C550.137 271.203 550.504 270.903 550.981 270.697C551.462 270.492 552.056 270.389 552.766 270.389C553.472 270.389 554.07 270.487 554.561 270.682C555.054 270.878 555.429 271.15 555.684 271.498C555.939 271.846 556.067 272.253 556.067 272.721C556.067 272.943 556.024 273.155 555.938 273.357C555.851 273.556 555.737 273.738 555.595 273.904C555.452 274.066 555.298 274.209 555.132 274.331L553.417 273.874C553.593 273.741 553.724 273.596 553.81 273.437C553.899 273.277 553.942 273.095 553.939 272.89C553.942 272.661 553.848 272.479 553.656 272.343C553.463 272.207 553.18 272.139 552.806 272.139ZM556.723 275.192H548.754V273.765H556.723V275.192ZM556.723 277.334H548.754V275.942H556.723V277.334ZM552.766 280.849C551.622 280.849 550.757 280.63 550.171 280.193C549.587 279.755 549.294 279.156 549.291 278.393C549.294 278.165 549.344 277.942 549.44 277.727C549.536 277.512 549.662 277.318 549.818 277.145C549.973 276.973 550.144 276.839 550.33 276.743L552.03 277.16C551.838 277.293 551.692 277.457 551.592 277.652C551.493 277.848 551.442 278.039 551.438 278.224C551.442 278.509 551.561 278.73 551.796 278.885C552.035 279.041 552.358 279.119 552.766 279.119C553.173 279.119 553.502 279.041 553.75 278.885C554.002 278.73 554.138 278.461 554.158 278.08H556.35C556.314 278.72 556.163 279.243 555.898 279.651C555.636 280.059 555.247 280.36 554.73 280.556C554.212 280.751 553.558 280.849 552.766 280.849Z" fill="#4ADE80"/>
<path d="M90.5753 308.939H89.0241C88.9645 308.608 88.8535 308.316 88.6911 308.064C88.5286 307.812 88.3298 307.599 88.0945 307.423C87.8591 307.247 87.5956 307.115 87.304 307.025C87.0156 306.936 86.709 306.891 86.3842 306.891C85.7976 306.891 85.2723 307.038 84.8082 307.333C84.3475 307.628 83.983 308.061 83.7145 308.631C83.4493 309.201 83.3168 309.897 83.3168 310.719C83.3168 311.548 83.4493 312.247 83.7145 312.817C83.983 313.387 84.3492 313.818 84.8132 314.11C85.2772 314.401 85.7992 314.547 86.3793 314.547C86.7008 314.547 87.0057 314.504 87.294 314.418C87.5857 314.328 87.8492 314.198 88.0845 314.025C88.3198 313.853 88.5187 313.642 88.6811 313.394C88.8468 313.142 88.9612 312.854 89.0241 312.529L90.5753 312.534C90.4924 313.034 90.3317 313.495 90.093 313.916C89.8577 314.333 89.5545 314.695 89.1832 315C88.8153 315.301 88.3944 315.535 87.9205 315.701C87.4465 315.866 86.9295 315.949 86.3693 315.949C85.4877 315.949 84.7022 315.74 84.0128 315.323C83.3234 314.902 82.7798 314.3 82.3821 313.518C81.9877 312.736 81.7905 311.803 81.7905 310.719C81.7905 309.632 81.9893 308.699 82.3871 307.92C82.7848 307.138 83.3284 306.538 84.0178 306.12C84.7071 305.699 85.491 305.489 86.3693 305.489C86.9096 305.489 87.4134 305.567 87.8807 305.723C88.3513 305.875 88.7739 306.1 89.1484 306.399C89.523 306.694 89.8329 307.055 90.0781 307.483C90.3234 307.907 90.4891 308.392 90.5753 308.939ZM92.2942 315.81V308.174H93.7807V315.81H92.2942ZM93.0449 306.995C92.7864 306.995 92.5643 306.909 92.3787 306.737C92.1964 306.561 92.1053 306.352 92.1053 306.11C92.1053 305.865 92.1964 305.656 92.3787 305.484C92.5643 305.308 92.7864 305.221 93.0449 305.221C93.3034 305.221 93.5239 305.308 93.7061 305.484C93.8917 305.656 93.9846 305.865 93.9846 306.11C93.9846 306.352 93.8917 306.561 93.7061 306.737C93.5239 306.909 93.3034 306.995 93.0449 306.995ZM95.179 315.81L95.174 314.522H95.4474C95.6596 314.522 95.8369 314.478 95.9794 314.388C96.1252 314.295 96.2446 314.14 96.3374 313.921C96.4302 313.702 96.5014 313.4 96.5511 313.016C96.6009 312.628 96.6373 312.141 96.6605 311.554L96.7947 308.174H102.124V315.81H100.668V309.456H98.1719L98.0526 312.051C98.0227 312.681 97.9581 313.231 97.8587 313.702C97.7625 314.173 97.6217 314.565 97.4361 314.88C97.2505 315.192 97.0118 315.426 96.7202 315.581C96.4285 315.734 96.0739 315.81 95.6562 315.81H95.179ZM105.225 310.799H107.443C108.377 310.799 109.097 311.031 109.6 311.495C110.104 311.959 110.356 312.557 110.356 313.289C110.356 313.767 110.243 314.196 110.018 314.577C109.793 314.958 109.463 315.26 109.029 315.482C108.594 315.701 108.066 315.81 107.443 315.81H104.107V308.174H105.563V314.527H107.443C107.87 314.527 108.222 314.416 108.497 314.194C108.772 313.969 108.909 313.682 108.909 313.334C108.909 312.966 108.772 312.666 108.497 312.434C108.222 312.199 107.87 312.081 107.443 312.081H105.225V310.799ZM112.023 315.81V308.174H118.252V315.81H116.795V309.456H113.469V315.81H112.023ZM123.456 315.964C122.74 315.964 122.115 315.8 121.582 315.472C121.048 315.144 120.634 314.685 120.339 314.095C120.044 313.505 119.896 312.815 119.896 312.027C119.896 311.234 120.044 310.542 120.339 309.948C120.634 309.355 121.048 308.895 121.582 308.566C122.115 308.238 122.74 308.074 123.456 308.074C124.172 308.074 124.797 308.238 125.33 308.566C125.864 308.895 126.278 309.355 126.573 309.948C126.868 310.542 127.016 311.234 127.016 312.027C127.016 312.815 126.868 313.505 126.573 314.095C126.278 314.685 125.864 315.144 125.33 315.472C124.797 315.8 124.172 315.964 123.456 315.964ZM123.461 314.716C123.925 314.716 124.31 314.594 124.615 314.348C124.919 314.103 125.145 313.777 125.291 313.369C125.44 312.961 125.514 312.512 125.514 312.022C125.514 311.534 125.44 311.087 125.291 310.679C125.145 310.268 124.919 309.939 124.615 309.69C124.31 309.441 123.925 309.317 123.461 309.317C122.994 309.317 122.606 309.441 122.298 309.69C121.993 309.939 121.766 310.268 121.617 310.679C121.471 311.087 121.398 311.534 121.398 312.022C121.398 312.512 121.471 312.961 121.617 313.369C121.766 313.777 121.993 314.103 122.298 314.348C122.606 314.594 122.994 314.716 123.461 314.716Z" fill="#F3F9F6"/>
<g clip-path="url(#clip1_284_2206)">
<rect x="177" y="306.35" width="294" height="8" rx="4" fill="#111A17"/>
<rect x="177" y="306.35" width="249.89" height="8" rx="4" fill="white" fill-opacity="0.1"/>
</g>
<path d="M513.516 305.628V315.81H511.363V307.672H511.304L508.972 309.133V307.224L511.493 305.628H513.516ZM522.86 305.489C523.384 305.489 523.888 305.577 524.372 305.752C524.859 305.928 525.293 306.208 525.674 306.593C526.059 306.977 526.362 307.488 526.584 308.124C526.809 308.757 526.924 309.534 526.927 310.456C526.927 311.321 526.829 312.093 526.634 312.772C526.441 313.448 526.165 314.024 525.803 314.497C525.442 314.971 525.006 315.333 524.496 315.581C523.985 315.827 523.415 315.949 522.786 315.949C522.106 315.949 521.506 315.818 520.986 315.556C520.466 315.291 520.046 314.932 519.728 314.478C519.413 314.02 519.223 313.506 519.156 312.936H521.279C521.362 313.308 521.536 313.596 521.801 313.801C522.066 314.004 522.395 314.105 522.786 314.105C523.449 314.105 523.952 313.816 524.297 313.24C524.642 312.66 524.816 311.866 524.819 310.858H524.749C524.597 311.157 524.391 311.413 524.133 311.629C523.874 311.841 523.578 312.005 523.243 312.121C522.912 312.237 522.559 312.295 522.184 312.295C521.584 312.295 521.049 312.154 520.578 311.872C520.108 311.591 519.736 311.203 519.465 310.709C519.193 310.215 519.057 309.652 519.057 309.019C519.054 308.336 519.211 307.728 519.529 307.194C519.847 306.661 520.292 306.243 520.862 305.941C521.435 305.636 522.101 305.486 522.86 305.489ZM522.875 307.179C522.54 307.179 522.242 307.259 521.98 307.418C521.722 307.577 521.516 307.791 521.364 308.059C521.215 308.328 521.142 308.628 521.145 308.959C521.145 309.294 521.218 309.596 521.364 309.864C521.513 310.129 521.715 310.341 521.97 310.5C522.229 310.656 522.524 310.734 522.855 310.734C523.104 310.734 523.334 310.688 523.546 310.595C523.758 310.502 523.942 310.374 524.098 310.212C524.257 310.046 524.382 309.856 524.471 309.64C524.561 309.425 524.605 309.196 524.605 308.954C524.602 308.633 524.526 308.338 524.377 308.069C524.227 307.801 524.022 307.585 523.76 307.423C523.498 307.261 523.203 307.179 522.875 307.179ZM528.548 315.81L532.769 307.458V307.388H527.852V305.628H534.996V307.413L530.77 315.81H528.548ZM540.16 315.949C539.636 315.946 539.131 315.858 538.644 315.686C538.16 315.513 537.726 315.233 537.341 314.846C536.957 314.458 536.652 313.944 536.426 313.304C536.204 312.665 536.093 311.879 536.093 310.948C536.097 310.093 536.194 309.329 536.387 308.656C536.582 307.98 536.861 307.406 537.222 306.936C537.586 306.465 538.022 306.107 538.529 305.862C539.037 305.613 539.605 305.489 540.235 305.489C540.914 305.489 541.514 305.622 542.034 305.887C542.555 306.149 542.972 306.505 543.287 306.956C543.605 307.406 543.798 307.912 543.864 308.472H541.741C541.658 308.117 541.484 307.839 541.219 307.637C540.954 307.435 540.626 307.333 540.235 307.333C539.572 307.333 539.068 307.622 538.723 308.198C538.382 308.775 538.208 309.559 538.201 310.55H538.271C538.423 310.248 538.629 309.992 538.887 309.779C539.149 309.564 539.446 309.4 539.777 309.287C540.112 309.171 540.465 309.113 540.836 309.113C541.439 309.113 541.976 309.256 542.447 309.541C542.918 309.823 543.289 310.21 543.561 310.704C543.832 311.198 543.968 311.763 543.968 312.399C543.968 313.089 543.808 313.702 543.486 314.239C543.168 314.776 542.722 315.197 542.149 315.502C541.579 315.803 540.916 315.953 540.16 315.949ZM540.15 314.259C540.482 314.259 540.778 314.179 541.04 314.02C541.302 313.861 541.507 313.646 541.657 313.374C541.806 313.102 541.88 312.797 541.88 312.459C541.88 312.121 541.806 311.818 541.657 311.549C541.511 311.281 541.309 311.067 541.05 310.908C540.792 310.749 540.497 310.669 540.165 310.669C539.917 310.669 539.686 310.716 539.474 310.809C539.265 310.901 539.081 311.031 538.922 311.196C538.766 311.362 538.644 311.554 538.554 311.773C538.465 311.989 538.42 312.219 538.42 312.464C538.42 312.792 538.495 313.092 538.644 313.364C538.796 313.636 539.002 313.853 539.26 314.015C539.522 314.178 539.819 314.259 540.15 314.259ZM553.229 307.239C552.841 307.239 552.548 307.317 552.349 307.473C552.154 307.628 552.049 307.852 552.036 308.144H549.868C549.905 307.574 550.051 307.091 550.306 306.697C550.561 306.303 550.927 306.003 551.405 305.797C551.885 305.592 552.48 305.489 553.189 305.489C553.895 305.489 554.494 305.587 554.984 305.782C555.478 305.978 555.853 306.25 556.108 306.598C556.363 306.946 556.491 307.353 556.491 307.821C556.491 308.043 556.447 308.255 556.361 308.457C556.275 308.656 556.161 308.838 556.018 309.004C555.876 309.166 555.722 309.309 555.556 309.431L553.841 308.974C554.016 308.841 554.147 308.696 554.233 308.537C554.323 308.377 554.366 308.195 554.363 307.99C554.366 307.761 554.272 307.579 554.079 307.443C553.887 307.307 553.604 307.239 553.229 307.239ZM557.147 310.292H549.177V308.865H557.147V310.292ZM557.147 312.434H549.177V311.042H557.147V312.434ZM553.189 315.949C552.046 315.949 551.181 315.73 550.594 315.293C550.011 314.855 549.718 314.256 549.714 313.493C549.718 313.265 549.767 313.042 549.863 312.827C549.96 312.612 550.085 312.418 550.241 312.245C550.397 312.073 550.568 311.939 550.753 311.843L552.454 312.26C552.261 312.393 552.116 312.557 552.016 312.752C551.917 312.948 551.865 313.139 551.862 313.324C551.865 313.609 551.985 313.83 552.22 313.985C552.459 314.141 552.782 314.219 553.189 314.219C553.597 314.219 553.925 314.141 554.174 313.985C554.426 313.83 554.562 313.561 554.581 313.18H556.774C556.737 313.82 556.587 314.343 556.322 314.751C556.06 315.159 555.67 315.46 555.153 315.656C554.636 315.851 553.982 315.949 553.189 315.949Z" fill="#F3F9F6"/>
<path d="M90.3366 340.718V350.9H88.9247L83.7493 343.433H83.6548V350.9H82.1186V340.718H83.5405L88.7209 348.195H88.8153V340.718H90.3366ZM95.6749 351.054C94.959 351.054 94.3342 350.89 93.8006 350.562C93.267 350.234 92.8527 349.775 92.5577 349.185C92.2627 348.595 92.1152 347.905 92.1152 347.117C92.1152 346.324 92.2627 345.632 92.5577 345.038C92.8527 344.445 93.267 343.985 93.8006 343.656C94.3342 343.328 94.959 343.164 95.6749 343.164C96.3908 343.164 97.0156 343.328 97.5492 343.656C98.0828 343.985 98.4971 344.445 98.7921 345.038C99.0871 345.632 99.2346 346.324 99.2346 347.117C99.2346 347.905 99.0871 348.595 98.7921 349.185C98.4971 349.775 98.0828 350.234 97.5492 350.562C97.0156 350.89 96.3908 351.054 95.6749 351.054ZM95.6799 349.806C96.1439 349.806 96.5284 349.684 96.8333 349.438C97.1382 349.193 97.3636 348.867 97.5094 348.459C97.6586 348.051 97.7331 347.602 97.7331 347.112C97.7331 346.624 97.6586 346.177 97.5094 345.769C97.3636 345.358 97.1382 345.029 96.8333 344.78C96.5284 344.531 96.1439 344.407 95.6799 344.407C95.2125 344.407 94.8248 344.531 94.5165 344.78C94.2116 345.029 93.9846 345.358 93.8354 345.769C93.6896 346.177 93.6167 346.624 93.6167 347.112C93.6167 347.602 93.6896 348.051 93.8354 348.459C93.9846 348.867 94.2116 349.193 94.5165 349.438C94.8248 349.684 95.2125 349.806 95.6799 349.806ZM107.167 343.264L104.398 350.9H102.807L100.032 343.264H101.628L103.562 349.14H103.642L105.571 343.264H107.167ZM113.401 347.733V343.264H114.893V350.9H113.431V349.578H113.351C113.176 349.985 112.894 350.325 112.506 350.597C112.122 350.865 111.643 350.999 111.069 350.999C110.579 350.999 110.145 350.892 109.767 350.676C109.392 350.458 109.097 350.134 108.882 349.707C108.67 349.279 108.564 348.751 108.564 348.121V343.264H110.05V347.942C110.05 348.462 110.194 348.877 110.483 349.185C110.771 349.493 111.146 349.647 111.606 349.647C111.885 349.647 112.162 349.578 112.437 349.438C112.715 349.299 112.945 349.089 113.128 348.807C113.313 348.525 113.404 348.167 113.401 347.733ZM122.612 345.128L121.265 345.367C121.209 345.194 121.119 345.03 120.996 344.874C120.877 344.719 120.715 344.591 120.509 344.492C120.304 344.392 120.047 344.342 119.739 344.342C119.318 344.342 118.966 344.437 118.685 344.626C118.403 344.811 118.262 345.052 118.262 345.347C118.262 345.602 118.357 345.807 118.545 345.963C118.734 346.119 119.039 346.247 119.46 346.346L120.673 346.624C121.376 346.787 121.9 347.037 122.244 347.375C122.589 347.713 122.761 348.152 122.761 348.693C122.761 349.15 122.629 349.558 122.364 349.916C122.102 350.27 121.736 350.549 121.265 350.751C120.798 350.953 120.256 351.054 119.639 351.054C118.784 351.054 118.086 350.872 117.546 350.507C117.006 350.139 116.674 349.617 116.552 348.941L117.989 348.722C118.078 349.097 118.262 349.38 118.54 349.573C118.819 349.761 119.182 349.856 119.629 349.856C120.116 349.856 120.506 349.755 120.798 349.553C121.089 349.347 121.235 349.097 121.235 348.802C121.235 348.563 121.146 348.363 120.967 348.2C120.791 348.038 120.521 347.915 120.156 347.833L118.864 347.549C118.151 347.387 117.624 347.128 117.283 346.774C116.945 346.419 116.776 345.97 116.776 345.426C116.776 344.976 116.902 344.581 117.153 344.243C117.405 343.905 117.753 343.641 118.197 343.453C118.642 343.26 119.15 343.164 119.724 343.164C120.549 343.164 121.199 343.343 121.673 343.701C122.147 344.056 122.46 344.531 122.612 345.128Z" fill="#F3F9F6"/>
<g clip-path="url(#clip2_284_2206)">
<rect x="177" y="341.45" width="294" height="8" rx="4" fill="#111A17"/>
<rect x="177" y="341.45" width="220.5" height="8" rx="4" fill="white" fill-opacity="0.1"/>
</g>
<path d="M507.602 350.9V349.349L511.226 345.993C511.534 345.695 511.793 345.426 512.002 345.188C512.214 344.949 512.375 344.715 512.484 344.487C512.593 344.255 512.648 344.004 512.648 343.736C512.648 343.438 512.58 343.181 512.444 342.965C512.308 342.747 512.123 342.579 511.887 342.463C511.652 342.344 511.385 342.284 511.087 342.284C510.775 342.284 510.504 342.347 510.272 342.473C510.04 342.599 509.861 342.78 509.735 343.015C509.609 343.25 509.546 343.53 509.546 343.855H507.502C507.502 343.189 507.653 342.611 507.955 342.12C508.257 341.63 508.679 341.25 509.223 340.982C509.766 340.713 510.393 340.579 511.102 340.579C511.831 340.579 512.466 340.708 513.006 340.967C513.55 341.222 513.972 341.577 514.274 342.031C514.575 342.485 514.726 343.005 514.726 343.592C514.726 343.976 514.65 344.356 514.498 344.73C514.348 345.105 514.082 345.521 513.697 345.978C513.313 346.432 512.771 346.977 512.071 347.614L510.585 349.07V349.14H514.86V350.9H507.602ZM523.653 351.124C522.798 351.12 522.062 350.91 521.445 350.492C520.832 350.075 520.36 349.47 520.028 348.678C519.7 347.886 519.538 346.933 519.541 345.819C519.541 344.709 519.705 343.762 520.033 342.98C520.365 342.198 520.837 341.603 521.45 341.195C522.067 340.784 522.801 340.579 523.653 340.579C524.505 340.579 525.237 340.784 525.85 341.195C526.467 341.606 526.941 342.203 527.272 342.985C527.603 343.764 527.768 344.709 527.764 345.819C527.764 346.936 527.598 347.891 527.267 348.683C526.939 349.475 526.468 350.08 525.855 350.497C525.242 350.915 524.508 351.124 523.653 351.124ZM523.653 349.339C524.236 349.339 524.702 349.046 525.05 348.459C525.398 347.872 525.57 346.992 525.567 345.819C525.567 345.047 525.487 344.404 525.328 343.89C525.172 343.376 524.95 342.99 524.662 342.732C524.377 342.473 524.04 342.344 523.653 342.344C523.073 342.344 522.609 342.634 522.261 343.214C521.913 343.794 521.737 344.662 521.734 345.819C521.734 346.601 521.812 347.254 521.967 347.778C522.126 348.298 522.35 348.689 522.639 348.951C522.927 349.21 523.265 349.339 523.653 349.339ZM533.063 351.039C532.32 351.039 531.659 350.912 531.079 350.656C530.502 350.398 530.047 350.043 529.712 349.592C529.38 349.138 529.21 348.615 529.2 348.021H531.367C531.381 348.27 531.462 348.489 531.611 348.678C531.763 348.863 531.966 349.007 532.218 349.11C532.469 349.213 532.753 349.264 533.068 349.264C533.396 349.264 533.686 349.206 533.938 349.09C534.19 348.974 534.387 348.814 534.529 348.608C534.672 348.403 534.743 348.166 534.743 347.897C534.743 347.625 534.667 347.385 534.514 347.176C534.365 346.964 534.15 346.798 533.868 346.679C533.59 346.56 533.258 346.5 532.874 346.5H531.924V344.919H532.874C533.199 344.919 533.485 344.863 533.734 344.75C533.986 344.637 534.181 344.482 534.32 344.283C534.46 344.081 534.529 343.845 534.529 343.577C534.529 343.322 534.468 343.098 534.345 342.906C534.226 342.71 534.057 342.558 533.838 342.448C533.623 342.339 533.371 342.284 533.083 342.284C532.791 342.284 532.524 342.337 532.282 342.443C532.04 342.546 531.846 342.694 531.7 342.886C531.555 343.078 531.477 343.303 531.467 343.562H529.404C529.414 342.975 529.581 342.458 529.906 342.011C530.231 341.563 530.668 341.214 531.218 340.962C531.772 340.707 532.396 340.579 533.093 340.579C533.795 340.579 534.41 340.707 534.937 340.962C535.464 341.217 535.873 341.562 536.165 341.996C536.46 342.427 536.606 342.911 536.602 343.448C536.606 344.018 536.428 344.493 536.07 344.874C535.716 345.256 535.254 345.498 534.683 345.6V345.68C535.432 345.776 536.003 346.036 536.394 346.46C536.788 346.881 536.984 347.408 536.98 348.041C536.984 348.621 536.816 349.137 536.478 349.587C536.143 350.038 535.681 350.393 535.091 350.651C534.501 350.91 533.825 351.039 533.063 351.039ZM542.957 340.718V350.9H540.805V342.761H540.745L538.413 344.223V342.314L540.934 340.718H542.957ZM553.112 342.329C552.724 342.329 552.431 342.407 552.232 342.563C552.036 342.718 551.932 342.942 551.919 343.234H549.751C549.788 342.664 549.933 342.181 550.189 341.787C550.444 341.393 550.81 341.093 551.287 340.887C551.768 340.682 552.363 340.579 553.072 340.579C553.778 340.579 554.376 340.677 554.867 340.872C555.361 341.068 555.735 341.34 555.99 341.688C556.246 342.036 556.373 342.443 556.373 342.911C556.373 343.133 556.33 343.345 556.244 343.547C556.158 343.746 556.043 343.928 555.901 344.094C555.758 344.256 555.604 344.399 555.439 344.521L553.723 344.064C553.899 343.931 554.03 343.786 554.116 343.627C554.206 343.467 554.249 343.285 554.245 343.08C554.249 342.851 554.154 342.669 553.962 342.533C553.77 342.397 553.486 342.329 553.112 342.329ZM557.029 345.382H549.06V343.955H557.029V345.382ZM557.029 347.524H549.06V346.132H557.029V347.524ZM553.072 351.039C551.929 351.039 551.064 350.82 550.477 350.383C549.894 349.945 549.6 349.346 549.597 348.583C549.6 348.355 549.65 348.132 549.746 347.917C549.842 347.702 549.968 347.508 550.124 347.335C550.28 347.163 550.45 347.029 550.636 346.933L552.336 347.35C552.144 347.483 551.998 347.647 551.899 347.842C551.799 348.038 551.748 348.229 551.745 348.414C551.748 348.699 551.867 348.92 552.103 349.075C552.341 349.231 552.664 349.309 553.072 349.309C553.48 349.309 553.808 349.231 554.056 349.075C554.308 348.92 554.444 348.651 554.464 348.27H556.657C556.62 348.91 556.469 349.433 556.204 349.841C555.942 350.249 555.553 350.55 555.036 350.746C554.519 350.941 553.864 351.039 553.072 351.039Z" fill="#F3F9F6"/>
</g>
<defs>
<filter id="filter0_d_284_2206" x="0" y="0" width="638" height="488" filterUnits="userSpaceOnUse" color-interpolation-filters="sRGB">
<feFlood flood-opacity="0" result="BackgroundImageFix"/>
<feColorMatrix in="SourceAlpha" type="matrix" values="0 0 0 0 0 0 0 0 0 0 0 0 0 0 0 0 0 0 127 0" result="hardAlpha"/>
<feOffset dy="18"/>
<feGaussianBlur stdDeviation="24"/>
<feComposite in2="hardAlpha" operator="out"/>
<feColorMatrix type="matrix" values="0 0 0 0 0 0 0 0 0 0 0 0 0 0 0 0 0 0 0.4 0"/>
<feBlend mode="normal" in2="BackgroundImageFix" result="effect1_dropShadow_284_2206"/>
<feBlend mode="normal" in="SourceGraphic" in2="effect1_dropShadow_284_2206" result="shape"/>
</filter>
<clipPath id="clip0_284_2206">
<rect x="177" y="271.26" width="294" height="8" rx="4" fill="white"/>
</clipPath>
<clipPath id="clip1_284_2206">
<rect x="177" y="306.35" width="294" height="8" rx="4" fill="white"/>
</clipPath>
<clipPath id="clip2_284_2206">
<rect x="177" y="341.45" width="294" height="8" rx="4" fill="white"/>
</clipPath>
</defs>
</svg>
