<svg width="27" height="21" viewBox="0 0 27 21" fill="none" xmlns="http://www.w3.org/2000/svg">
<path d="M0 1.65789C0 1.21819 0.177789 0.796501 0.494257 0.485586C0.810725 0.17467 1.23995 0 1.6875 0H18.5625C19.0101 0 19.4393 0.17467 19.7557 0.485586C20.0722 0.796501 20.25 1.21819 20.25 1.65789C20.25 2.0976 20.0722 2.51929 19.7557 2.8302C19.4393 3.14112 19.0101 3.31579 18.5625 3.31579H1.6875C1.23995 3.31579 0.810725 3.14112 0.494257 2.8302C0.177789 2.51929 0 2.0976 0 1.65789ZM0 19.3421C0 18.9024 0.177789 18.4807 0.494257 18.1698C0.810725 17.8589 1.23995 17.6842 1.6875 17.6842H16.3125C16.7601 17.6842 17.1893 17.8589 17.5057 18.1698C17.8222 18.4807 18 18.9024 18 19.3421C18 19.7818 17.8222 20.2035 17.5057 20.5144C17.1893 20.8253 16.7601 21 16.3125 21H1.6875C1.23995 21 0.810725 20.8253 0.494257 20.5144C0.177789 20.2035 0 19.7818 0 19.3421ZM1.6875 8.8421C1.23995 8.8421 0.810725 9.01678 0.494257 9.32769C0.177789 9.63861 0 10.0603 0 10.5C0 10.9397 0.177789 11.3614 0.494257 11.6723C0.810725 11.9832 1.23995 12.1579 1.6875 12.1579H25.3125C25.7601 12.1579 26.1893 11.9832 26.5057 11.6723C26.8222 11.3614 27 10.9397 27 10.5C27 10.0603 26.8222 9.63861 26.5057 9.32769C26.1893 9.01678 25.7601 8.8421 25.3125 8.8421H1.6875Z" fill="white"/>
</svg>
